<svg width="2753" height="493" viewBox="0 0 2753 493" fill="none" xmlns="http://www.w3.org/2000/svg">
<path d="M14.6447 195.084C-4.86255 175.577 -4.88431 143.956 14.596 124.422L137.9 0.777346H527.893L651.189 124.422C670.668 143.956 670.646 175.576 651.139 195.083L368.247 477.975C348.721 497.502 317.062 497.502 297.536 477.975L14.6447 195.084Z" fill="url(#paint0_linear_193_18)"/>
<path d="M138.119 0H527.674L350.574 177.1C340.811 186.863 324.982 186.863 315.219 177.1L138.119 0Z" fill="url(#paint1_linear_193_18)"/>
<path d="M913.797 48.0008H976.797V444.001H913.797V48.0008Z" fill="currentColor"/>
<path d="M1115.47 107.101L1119.67 107.701V444.001H1056.67V48.0008H1144.57L1335.97 384.001L1332.07 384.901V48.0008H1394.77V444.001H1306.57L1115.47 107.101Z" fill="currentColor"/>
<path d="M1662.3 444.001H1589.4L1445.7 48.0008H1516.8L1626 365.701L1735.5 48.0008H1806.6L1662.3 444.001Z" fill="currentColor"/>
<path d="M1889.24 245.701C1889.24 272.901 1894.94 297.601 1906.34 319.801C1917.74 341.801 1933.44 359.301 1953.44 372.301C1973.44 385.101 1996.44 391.501 2022.44 391.501C2048.84 391.501 2071.94 385.101 2091.74 372.301C2111.74 359.301 2127.34 341.801 2138.54 319.801C2149.94 297.601 2155.64 272.901 2155.64 245.701C2155.64 218.501 2149.94 193.901 2138.54 171.901C2127.34 149.901 2111.74 132.501 2091.74 119.701C2071.94 106.901 2048.84 100.501 2022.44 100.501C1996.44 100.501 1973.44 106.901 1953.44 119.701C1933.44 132.501 1917.74 149.901 1906.34 171.901C1894.94 193.901 1889.24 218.501 1889.24 245.701ZM1823.54 245.701C1823.54 216.901 1828.54 190.101 1838.54 165.301C1848.74 140.301 1862.74 118.501 1880.54 99.9008C1898.54 81.3008 1919.64 66.8008 1943.84 56.4008C1968.04 46.0008 1994.24 40.8008 2022.44 40.8008C2051.04 40.8008 2077.34 46.0008 2101.34 56.4008C2125.54 66.8008 2146.64 81.3008 2164.64 99.9008C2182.64 118.501 2196.54 140.301 2206.34 165.301C2216.14 190.101 2221.04 216.901 2221.04 245.701C2221.04 274.701 2216.14 301.701 2206.34 326.701C2196.74 351.501 2183.04 373.301 2165.24 392.101C2147.44 410.701 2126.44 425.201 2102.24 435.601C2078.04 446.001 2051.44 451.201 2022.44 451.201C1993.24 451.201 1966.44 446.001 1942.04 435.601C1917.84 425.201 1896.84 410.701 1879.04 392.101C1861.44 373.301 1847.74 351.501 1837.94 326.701C1828.34 301.701 1823.54 274.701 1823.54 245.701Z" fill="currentColor"/>
<path d="M2282.55 48.0008H2345.55V444.001H2282.55V48.0008Z" fill="currentColor"/>
<path d="M2424.82 48.0008H2566.4C2608.6 48.0008 2643.4 56.5008 2670.8 73.5008C2698.2 90.3008 2718.6 113.601 2732 143.401C2745.4 173.201 2752.1 207.301 2752.1 245.701C2752.1 284.301 2745.4 318.501 2732 348.301C2718.8 378.101 2698.5 401.501 2671.1 418.501C2643.7 435.501 2608.8 444.001 2566.4 444.001H2424.82V48.0008ZM2487.52 105.001V387.001H2561C2589.6 387.001 2613 381.001 2631.2 369.001C2649.6 356.801 2663.2 340.101 2672 318.901C2680.8 297.701 2685.3 273.501 2685.5 246.301C2685.7 219.101 2681.4 194.901 2672.6 173.701C2663.8 152.301 2650.1 135.501 2631.5 123.301C2613.1 111.101 2589.6 105.001 2561 105.001H2487.52Z" fill="currentColor"/>
<defs>
<linearGradient id="paint0_linear_193_18" x1="333.117" y1="-9.77735" x2="333.117" y2="513.223" gradientUnits="userSpaceOnUse">
<stop stop-color="#92E8EE"/>
<stop offset="1" stop-color="#42BCCB"/>
</linearGradient>
<linearGradient id="paint1_linear_193_18" x1="333.117" y1="167.723" x2="333.117" y2="0.222655" gradientUnits="userSpaceOnUse">
<stop stop-color="#1556B2"/>
<stop offset="1" stop-color="#1871EF"/>
</linearGradient>
</defs>
</svg>
